<svg xmlns="http://www.w3.org/2000/svg" xmlns:xlink="http://www.w3.org/1999/xlink" width="500" zoomAndPan="magnify" viewBox="0 0 375 374.999991" height="500" preserveAspectRatio="xMidYMid meet" version="1.0"><defs><g/></defs><g fill="#ffffff" fill-opacity="1"><g transform="translate(-3.570574, 221.211793)"><g><path d="M 16.28125 0 L 16.28125 -64.21875 L 28.375 -64.21875 L 58.625 -25.390625 L 88.21875 -64.21875 L 100.1875 -64.21875 L 100.1875 0 L 86.328125 0 L 86.328125 -39.671875 C 86.328125 -40.441406 86.378906 -41.410156 86.484375 -42.578125 C 86.585938 -43.753906 86.71875 -45.070312 86.875 -46.53125 C 86.0625 -44.875 85.351562 -43.507812 84.75 -42.4375 C 84.144531 -41.363281 83.597656 -40.484375 83.109375 -39.796875 L 58.984375 -7.71875 L 56.015625 -7.71875 L 31.828125 -39.921875 C 30.941406 -41.128906 30.179688 -42.269531 29.546875 -43.34375 C 28.921875 -44.414062 28.40625 -45.457031 28 -46.46875 C 28.125 -45.132812 28.21875 -43.921875 28.28125 -42.828125 C 28.34375 -41.734375 28.375 -40.679688 28.375 -39.671875 L 28.375 0 Z M 16.28125 0 "/></g></g></g><g fill="#ffffff" fill-opacity="1"><g transform="translate(99.897702, 221.211793)"><g><path d="M 15.0625 -49.03125 C 15.0625 -54.863281 16.15625 -58.851562 18.34375 -61 C 20.53125 -63.144531 24.742188 -64.21875 30.984375 -64.21875 L 78.25 -64.21875 C 84.488281 -64.21875 88.703125 -63.144531 90.890625 -61 C 93.078125 -58.851562 94.171875 -54.863281 94.171875 -49.03125 L 94.171875 -15.1875 C 94.171875 -9.3125 93.078125 -5.3125 90.890625 -3.1875 C 88.703125 -1.0625 84.488281 0 78.25 0 L 30.984375 0 C 24.742188 0 20.53125 -1.0625 18.34375 -3.1875 C 16.15625 -5.3125 15.0625 -9.3125 15.0625 -15.1875 Z M 30.015625 -12.09375 L 79.28125 -12.09375 L 79.28125 -52.734375 L 30.015625 -52.734375 Z M 30.015625 -12.09375 "/></g></g></g><g fill="#ffffff" fill-opacity="1"><g transform="translate(197.413352, 221.211793)"><g><path d="M 34.328125 0 L 34.328125 -28.734375 L 0.96875 -64.21875 L 20.90625 -64.21875 L 42.953125 -39.546875 L 65.0625 -64.21875 L 82.625 -64.21875 L 49.390625 -29.09375 L 49.390625 0 Z M 34.328125 0 "/></g></g></g><g fill="#ffffff" fill-opacity="1"><g transform="translate(269.296253, 221.211793)"><g><path d="M 15.0625 -49.03125 C 15.0625 -54.863281 16.15625 -58.851562 18.34375 -61 C 20.53125 -63.144531 24.742188 -64.21875 30.984375 -64.21875 L 78.25 -64.21875 C 84.488281 -64.21875 88.703125 -63.144531 90.890625 -61 C 93.078125 -58.851562 94.171875 -54.863281 94.171875 -49.03125 L 94.171875 -15.1875 C 94.171875 -9.3125 93.078125 -5.3125 90.890625 -3.1875 C 88.703125 -1.0625 84.488281 0 78.25 0 L 30.984375 0 C 24.742188 0 20.53125 -1.0625 18.34375 -3.1875 C 16.15625 -5.3125 15.0625 -9.3125 15.0625 -15.1875 Z M 30.015625 -12.09375 L 79.28125 -12.09375 L 79.28125 -52.734375 L 30.015625 -52.734375 Z M 30.015625 -12.09375 "/></g></g></g><g fill="#ffffff" fill-opacity="1"><g transform="translate(9.842086, 248.551141)"><g><path d="M 2.84375 0 L 2.84375 -11.15625 L 14.28125 -11.15625 L 14.28125 -9.265625 L 5.453125 -9.265625 L 5.453125 -6.765625 L 10.59375 -6.765625 L 10.59375 -4.875 L 5.453125 -4.875 L 5.453125 -2.09375 L 14.375 -2.09375 L 14.375 0 Z M 2.84375 0 "/></g></g></g><g fill="#ffffff" fill-opacity="1"><g transform="translate(24.130453, 248.551141)"><g><path d="M 6.625 0 L 0.171875 -11.15625 L 3.140625 -11.15625 L 7.65625 -3.09375 L 11.96875 -11.15625 L 14.546875 -11.15625 L 8.421875 0 Z M 6.625 0 "/></g></g></g><g fill="#ffffff" fill-opacity="1"><g transform="translate(36.824686, 248.551141)"><g><path d="M 2.84375 0 L 2.84375 -11.15625 L 14.28125 -11.15625 L 14.28125 -9.265625 L 5.453125 -9.265625 L 5.453125 -6.765625 L 10.59375 -6.765625 L 10.59375 -4.875 L 5.453125 -4.875 L 5.453125 -2.09375 L 14.375 -2.09375 L 14.375 0 Z M 2.84375 0 "/></g></g></g><g fill="#ffffff" fill-opacity="1"><g transform="translate(51.113052, 248.551141)"><g><path d="M 11.25 -9.234375 L 5.40625 -9.234375 L 5.40625 -6.125 L 11.25 -6.125 C 11.695312 -6.125 12.003906 -6.1875 12.171875 -6.3125 C 12.335938 -6.445312 12.421875 -6.679688 12.421875 -7.015625 L 12.421875 -8.359375 C 12.421875 -8.679688 12.335938 -8.90625 12.171875 -9.03125 C 12.003906 -9.164062 11.695312 -9.234375 11.25 -9.234375 Z M 2.84375 0 L 2.84375 -11.15625 L 12.390625 -11.15625 C 13.285156 -11.15625 13.929688 -10.984375 14.328125 -10.640625 C 14.722656 -10.304688 14.921875 -9.757812 14.921875 -9 L 14.921875 -6.375 C 14.921875 -5.625 14.722656 -5.078125 14.328125 -4.734375 C 13.929688 -4.390625 13.285156 -4.21875 12.390625 -4.21875 L 10.9375 -4.21875 L 16.09375 0 L 12.359375 0 L 7.859375 -4.21875 L 5.40625 -4.21875 L 5.40625 0 Z M 2.84375 0 "/></g></g></g><g fill="#ffffff" fill-opacity="1"><g transform="translate(66.414913, 248.551141)"><g><path d="M 5.96875 0 L 5.96875 -5 L 0.171875 -11.15625 L 3.625 -11.15625 L 7.46875 -6.875 L 11.3125 -11.15625 L 14.359375 -11.15625 L 8.578125 -5.0625 L 8.578125 0 Z M 5.96875 0 "/></g></g></g><g fill="#ffffff" fill-opacity="1"><g transform="translate(78.908555, 248.551141)"><g><path d="M 2.625 -8.515625 C 2.625 -9.535156 2.8125 -10.226562 3.1875 -10.59375 C 3.570312 -10.96875 4.304688 -11.15625 5.390625 -11.15625 L 13.59375 -11.15625 C 14.675781 -11.15625 15.40625 -10.96875 15.78125 -10.59375 C 16.164062 -10.226562 16.359375 -9.535156 16.359375 -8.515625 L 16.359375 -2.640625 C 16.359375 -1.617188 16.164062 -0.921875 15.78125 -0.546875 C 15.40625 -0.179688 14.675781 0 13.59375 0 L 5.390625 0 C 4.304688 0 3.570312 -0.179688 3.1875 -0.546875 C 2.8125 -0.921875 2.625 -1.617188 2.625 -2.640625 Z M 5.21875 -2.09375 L 13.78125 -2.09375 L 13.78125 -9.171875 L 5.21875 -9.171875 Z M 5.21875 -2.09375 "/></g></g></g><g fill="#ffffff" fill-opacity="1"><g transform="translate(95.857337, 248.551141)"><g><path d="M 2.828125 0 L 2.828125 -11.15625 L 4.609375 -11.15625 L 12.453125 -4.578125 C 12.722656 -4.359375 12.957031 -4.148438 13.15625 -3.953125 C 13.363281 -3.765625 13.554688 -3.570312 13.734375 -3.375 C 13.679688 -4 13.648438 -4.441406 13.640625 -4.703125 C 13.628906 -4.960938 13.625 -5.160156 13.625 -5.296875 L 13.625 -11.15625 L 15.953125 -11.15625 L 15.953125 0 L 14.1875 0 L 5.984375 -6.890625 C 5.785156 -7.066406 5.613281 -7.222656 5.46875 -7.359375 C 5.320312 -7.503906 5.1875 -7.648438 5.0625 -7.796875 C 5.09375 -7.453125 5.113281 -7.125 5.125 -6.8125 C 5.144531 -6.507812 5.15625 -6.25 5.15625 -6.03125 L 5.15625 0 Z M 2.828125 0 "/></g></g></g><g fill="#ffffff" fill-opacity="1"><g transform="translate(112.616095, 248.551141)"><g><path d="M 2.84375 0 L 2.84375 -11.15625 L 14.28125 -11.15625 L 14.28125 -9.265625 L 5.453125 -9.265625 L 5.453125 -6.765625 L 10.59375 -6.765625 L 10.59375 -4.875 L 5.453125 -4.875 L 5.453125 -2.09375 L 14.375 -2.09375 L 14.375 0 Z M 2.84375 0 "/></g></g></g><g fill="#ffffff" fill-opacity="1"><g transform="translate(126.904463, 248.551141)"><g/></g></g><g fill="#ffffff" fill-opacity="1"><g transform="translate(133.243251, 248.551141)"><g><path d="M 5.453125 -2.09375 L 8.8125 -2.09375 C 10.59375 -2.09375 11.859375 -2.367188 12.609375 -2.921875 C 13.359375 -3.484375 13.734375 -4.40625 13.734375 -5.6875 C 13.734375 -6.832031 13.421875 -7.695312 12.796875 -8.28125 C 12.179688 -8.875 11.265625 -9.171875 10.046875 -9.171875 L 5.453125 -9.171875 Z M 2.84375 0 L 2.84375 -11.15625 L 10.03125 -11.15625 C 12.082031 -11.15625 13.65625 -10.675781 14.75 -9.71875 C 15.851562 -8.757812 16.40625 -7.40625 16.40625 -5.65625 C 16.40625 -4.613281 16.191406 -3.671875 15.765625 -2.828125 C 15.335938 -1.992188 14.734375 -1.335938 13.953125 -0.859375 C 13.460938 -0.554688 12.859375 -0.335938 12.140625 -0.203125 C 11.421875 -0.0664062 10.492188 0 9.359375 0 Z M 2.84375 0 "/></g></g></g><g fill="#ffffff" fill-opacity="1"><g transform="translate(149.526938, 248.551141)"><g><path d="M 2.84375 0 L 2.84375 -11.15625 L 14.28125 -11.15625 L 14.28125 -9.265625 L 5.453125 -9.265625 L 5.453125 -6.765625 L 10.59375 -6.765625 L 10.59375 -4.875 L 5.453125 -4.875 L 5.453125 -2.09375 L 14.375 -2.09375 L 14.375 0 Z M 2.84375 0 "/></g></g></g><g fill="#ffffff" fill-opacity="1"><g transform="translate(163.815306, 248.551141)"><g><path d="M 12.515625 -9.203125 L 5.21875 -9.203125 L 5.21875 -6.8125 L 12.171875 -6.8125 C 13.265625 -6.8125 14.003906 -6.625 14.390625 -6.25 C 14.773438 -5.875 14.96875 -5.179688 14.96875 -4.171875 L 14.96875 -2.640625 C 14.96875 -1.628906 14.773438 -0.9375 14.390625 -0.5625 C 14.003906 -0.1875 13.265625 0 12.171875 0 L 5.28125 0 C 4.1875 0 3.445312 -0.1875 3.0625 -0.5625 C 2.675781 -0.9375 2.484375 -1.628906 2.484375 -2.640625 L 2.484375 -2.953125 L 4.78125 -3.421875 L 4.78125 -2.09375 L 12.671875 -2.09375 L 12.671875 -4.640625 L 5.71875 -4.640625 C 4.632812 -4.640625 3.898438 -4.828125 3.515625 -5.203125 C 3.140625 -5.578125 2.953125 -6.269531 2.953125 -7.28125 L 2.953125 -8.515625 C 2.953125 -9.535156 3.140625 -10.226562 3.515625 -10.59375 C 3.898438 -10.96875 4.632812 -11.15625 5.71875 -11.15625 L 12.046875 -11.15625 C 13.097656 -11.15625 13.820312 -10.972656 14.21875 -10.609375 C 14.613281 -10.253906 14.8125 -9.625 14.8125 -8.71875 L 14.8125 -8.484375 L 12.515625 -7.9375 Z M 12.515625 -9.203125 "/></g></g></g><g fill="#ffffff" fill-opacity="1"><g transform="translate(179.275521, 248.551141)"><g><path d="M 2.84375 0 L 2.84375 -11.15625 L 14.28125 -11.15625 L 14.28125 -9.265625 L 5.453125 -9.265625 L 5.453125 -6.765625 L 10.59375 -6.765625 L 10.59375 -4.875 L 5.453125 -4.875 L 5.453125 -2.09375 L 14.375 -2.09375 L 14.375 0 Z M 2.84375 0 "/></g></g></g><g fill="#ffffff" fill-opacity="1"><g transform="translate(193.56388, 248.551141)"><g><path d="M 11.25 -9.234375 L 5.40625 -9.234375 L 5.40625 -6.125 L 11.25 -6.125 C 11.695312 -6.125 12.003906 -6.1875 12.171875 -6.3125 C 12.335938 -6.445312 12.421875 -6.679688 12.421875 -7.015625 L 12.421875 -8.359375 C 12.421875 -8.679688 12.335938 -8.90625 12.171875 -9.03125 C 12.003906 -9.164062 11.695312 -9.234375 11.25 -9.234375 Z M 2.84375 0 L 2.84375 -11.15625 L 12.390625 -11.15625 C 13.285156 -11.15625 13.929688 -10.984375 14.328125 -10.640625 C 14.722656 -10.304688 14.921875 -9.757812 14.921875 -9 L 14.921875 -6.375 C 14.921875 -5.625 14.722656 -5.078125 14.328125 -4.734375 C 13.929688 -4.390625 13.285156 -4.21875 12.390625 -4.21875 L 10.9375 -4.21875 L 16.09375 0 L 12.359375 0 L 7.859375 -4.21875 L 5.40625 -4.21875 L 5.40625 0 Z M 2.84375 0 "/></g></g></g><g fill="#ffffff" fill-opacity="1"><g transform="translate(208.865732, 248.551141)"><g><path d="M 6.625 0 L 0.171875 -11.15625 L 3.140625 -11.15625 L 7.65625 -3.09375 L 11.96875 -11.15625 L 14.546875 -11.15625 L 8.421875 0 Z M 6.625 0 "/></g></g></g><g fill="#ffffff" fill-opacity="1"><g transform="translate(221.559965, 248.551141)"><g><path d="M 2.84375 0 L 2.84375 -11.15625 L 14.28125 -11.15625 L 14.28125 -9.265625 L 5.453125 -9.265625 L 5.453125 -6.765625 L 10.59375 -6.765625 L 10.59375 -4.875 L 5.453125 -4.875 L 5.453125 -2.09375 L 14.375 -2.09375 L 14.375 0 Z M 2.84375 0 "/></g></g></g><g fill="#ffffff" fill-opacity="1"><g transform="translate(235.848324, 248.551141)"><g><path d="M 12.515625 -9.203125 L 5.21875 -9.203125 L 5.21875 -6.8125 L 12.171875 -6.8125 C 13.265625 -6.8125 14.003906 -6.625 14.390625 -6.25 C 14.773438 -5.875 14.96875 -5.179688 14.96875 -4.171875 L 14.96875 -2.640625 C 14.96875 -1.628906 14.773438 -0.9375 14.390625 -0.5625 C 14.003906 -0.1875 13.265625 0 12.171875 0 L 5.28125 0 C 4.1875 0 3.445312 -0.1875 3.0625 -0.5625 C 2.675781 -0.9375 2.484375 -1.628906 2.484375 -2.640625 L 2.484375 -2.953125 L 4.78125 -3.421875 L 4.78125 -2.09375 L 12.671875 -2.09375 L 12.671875 -4.640625 L 5.71875 -4.640625 C 4.632812 -4.640625 3.898438 -4.828125 3.515625 -5.203125 C 3.140625 -5.578125 2.953125 -6.269531 2.953125 -7.28125 L 2.953125 -8.515625 C 2.953125 -9.535156 3.140625 -10.226562 3.515625 -10.59375 C 3.898438 -10.96875 4.632812 -11.15625 5.71875 -11.15625 L 12.046875 -11.15625 C 13.097656 -11.15625 13.820312 -10.972656 14.21875 -10.609375 C 14.613281 -10.253906 14.8125 -9.625 14.8125 -8.71875 L 14.8125 -8.484375 L 12.515625 -7.9375 Z M 12.515625 -9.203125 "/></g></g></g><g fill="#ffffff" fill-opacity="1"><g transform="translate(251.308539, 248.551141)"><g/></g></g><g fill="#ffffff" fill-opacity="1"><g transform="translate(257.647317, 248.551141)"><g><path d="M 8.046875 -9.171875 L 8.046875 0 L 5.453125 0 L 5.453125 -9.171875 L 0.328125 -9.171875 L 0.328125 -11.15625 L 13.1875 -11.15625 L 13.1875 -9.171875 Z M 8.046875 -9.171875 "/></g></g></g><g fill="#ffffff" fill-opacity="1"><g transform="translate(269.127465, 248.551141)"><g><path d="M 2.84375 0 L 2.84375 -11.15625 L 5.453125 -11.15625 L 5.453125 -6.828125 L 13.5625 -6.828125 L 13.5625 -11.15625 L 16.171875 -11.15625 L 16.171875 0 L 13.5625 0 L 13.5625 -4.796875 L 5.453125 -4.796875 L 5.453125 0 Z M 2.84375 0 "/></g></g></g><g fill="#ffffff" fill-opacity="1"><g transform="translate(286.118471, 248.551141)"><g><path d="M 2.84375 0 L 2.84375 -11.15625 L 14.28125 -11.15625 L 14.28125 -9.265625 L 5.453125 -9.265625 L 5.453125 -6.765625 L 10.59375 -6.765625 L 10.59375 -4.875 L 5.453125 -4.875 L 5.453125 -2.09375 L 14.375 -2.09375 L 14.375 0 Z M 2.84375 0 "/></g></g></g><g fill="#ffffff" fill-opacity="1"><g transform="translate(300.40683, 248.551141)"><g/></g></g><g fill="#ffffff" fill-opacity="1"><g transform="translate(306.745608, 248.551141)"><g><path d="M 11.328125 -9.34375 L 5.40625 -9.34375 L 5.40625 -6.6875 L 11.328125 -6.6875 C 11.773438 -6.6875 12.082031 -6.742188 12.25 -6.859375 C 12.425781 -6.984375 12.515625 -7.191406 12.515625 -7.484375 L 12.515625 -8.546875 C 12.515625 -8.828125 12.425781 -9.03125 12.25 -9.15625 C 12.082031 -9.28125 11.773438 -9.34375 11.328125 -9.34375 Z M 11.328125 -4.84375 L 5.40625 -4.84375 L 5.40625 -2 L 11.328125 -2 C 11.816406 -2 12.148438 -2.070312 12.328125 -2.21875 C 12.503906 -2.375 12.59375 -2.640625 12.59375 -3.015625 L 12.59375 -3.859375 C 12.59375 -4.222656 12.503906 -4.476562 12.328125 -4.625 C 12.148438 -4.769531 11.816406 -4.84375 11.328125 -4.84375 Z M 2.84375 0 L 2.84375 -11.15625 L 12.421875 -11.15625 C 13.296875 -11.15625 13.929688 -10.984375 14.328125 -10.640625 C 14.722656 -10.296875 14.921875 -9.75 14.921875 -9 L 14.921875 -7.640625 C 14.921875 -7.097656 14.753906 -6.664062 14.421875 -6.34375 C 14.085938 -6.03125 13.613281 -5.832031 13 -5.75 C 13.632812 -5.664062 14.125 -5.4375 14.46875 -5.0625 C 14.820312 -4.695312 15 -4.210938 15 -3.609375 L 15 -2.1875 C 15 -1.445312 14.726562 -0.894531 14.1875 -0.53125 C 13.644531 -0.175781 12.820312 0 11.71875 0 Z M 2.84375 0 "/></g></g></g><g fill="#ffffff" fill-opacity="1"><g transform="translate(321.878544, 248.551141)"><g><path d="M 2.84375 0 L 2.84375 -11.15625 L 14.28125 -11.15625 L 14.28125 -9.265625 L 5.453125 -9.265625 L 5.453125 -6.765625 L 10.59375 -6.765625 L 10.59375 -4.875 L 5.453125 -4.875 L 5.453125 -2.09375 L 14.375 -2.09375 L 14.375 0 Z M 2.84375 0 "/></g></g></g><g fill="#ffffff" fill-opacity="1"><g transform="translate(336.166902, 248.551141)"><g><path d="M 12.515625 -9.203125 L 5.21875 -9.203125 L 5.21875 -6.8125 L 12.171875 -6.8125 C 13.265625 -6.8125 14.003906 -6.625 14.390625 -6.25 C 14.773438 -5.875 14.96875 -5.179688 14.96875 -4.171875 L 14.96875 -2.640625 C 14.96875 -1.628906 14.773438 -0.9375 14.390625 -0.5625 C 14.003906 -0.1875 13.265625 0 12.171875 0 L 5.28125 0 C 4.1875 0 3.445312 -0.1875 3.0625 -0.5625 C 2.675781 -0.9375 2.484375 -1.628906 2.484375 -2.640625 L 2.484375 -2.953125 L 4.78125 -3.421875 L 4.78125 -2.09375 L 12.671875 -2.09375 L 12.671875 -4.640625 L 5.71875 -4.640625 C 4.632812 -4.640625 3.898438 -4.828125 3.515625 -5.203125 C 3.140625 -5.578125 2.953125 -6.269531 2.953125 -7.28125 L 2.953125 -8.515625 C 2.953125 -9.535156 3.140625 -10.226562 3.515625 -10.59375 C 3.898438 -10.96875 4.632812 -11.15625 5.71875 -11.15625 L 12.046875 -11.15625 C 13.097656 -11.15625 13.820312 -10.972656 14.21875 -10.609375 C 14.613281 -10.253906 14.8125 -9.625 14.8125 -8.71875 L 14.8125 -8.484375 L 12.515625 -7.9375 Z M 12.515625 -9.203125 "/></g></g></g><g fill="#ffffff" fill-opacity="1"><g transform="translate(351.627137, 248.551141)"><g><path d="M 8.046875 -9.171875 L 8.046875 0 L 5.453125 0 L 5.453125 -9.171875 L 0.328125 -9.171875 L 0.328125 -11.15625 L 13.1875 -11.15625 L 13.1875 -9.171875 Z M 8.046875 -9.171875 "/></g></g></g></svg>